<?xml version="1.0" standalone="no"?>
<!DOCTYPE svg PUBLIC "-//W3C//DTD SVG 20010904//EN"
 "http://www.w3.org/TR/2001/REC-SVG-20010904/DTD/svg10.dtd">
<svg version="1.0" xmlns="http://www.w3.org/2000/svg"
 width="512.000000pt" height="512.000000pt" viewBox="0 0 512.000000 512.000000"
 preserveAspectRatio="xMidYMid meet">
<metadata>
Created by potrace 1.14, written by Peter Selinger 2001-2017
</metadata>
<g transform="translate(0.000000,512.000000) scale(0.100000,-0.100000)"
fill="#000000" stroke="none">
<path d="M963 5106 c-140 -44 -235 -158 -251 -301 -4 -33 -7 -441 -6 -907 0
-466 -2 -851 -5 -855 -3 -5 -24 -21 -46 -38 -95 -70 -220 -196 -305 -305 -236
-307 -351 -659 -344 -1048 1 -86 5 -168 8 -181 3 -13 8 -49 12 -80 3 -31 11
-65 17 -76 6 -11 9 -22 8 -25 -4 -10 23 -106 51 -183 189 -520 626 -917 1156
-1052 55 -13 117 -27 138 -30 22 -3 55 -8 74 -12 54 -9 318 -11 380 -3 115 16
147 22 229 42 358 84 706 311 927 605 180 238 293 506 329 778 3 28 8 61 10
73 2 13 5 56 6 96 l2 73 706 0 c388 0 730 3 759 7 109 13 220 97 270 204 l27
57 0 1455 0 1455 -28 57 c-36 73 -100 137 -174 174 l-58 29 -1925 2 c-1571 1
-1933 -1 -1967 -11z"/>
</g>
</svg>
